<svg width="37" height="51" viewBox="0 0 37 51" fill="none" xmlns="http://www.w3.org/2000/svg">
<path d="M10.3159 49.0163C10.5827 48.9448 10.741 48.6706 10.6695 48.4039L9.5048 44.0572C9.43333 43.7905 9.15916 43.6322 8.89243 43.7037C8.62569 43.7752 8.4674 44.0493 8.53887 44.3161L9.57415 48.1798L5.71044 49.215C5.44371 49.2865 5.28542 49.5607 5.35689 49.8274C5.42836 50.0941 5.70253 50.2524 5.96926 50.181L10.3159 49.0163ZM10.4365 48.1003C0.713316 42.4866 -1.66114 28.0541 5.43301 15.7667L4.56698 15.2667C-2.69828 27.8505 -0.428562 42.982 9.93652 48.9663L10.4365 48.1003ZM5.43301 15.7667C12.5272 3.47924 26.2133 -1.68068 35.9365 3.93301L36.4365 3.06699C26.0714 -2.9173 11.8322 2.68286 4.56698 15.2667L5.43301 15.7667Z" fill="black"/>
</svg>
