<svg width="155" height="67" viewBox="0 0 155 67" fill="none" xmlns="http://www.w3.org/2000/svg">
<path d="M150.003 0.567011C149.763 0.428937 149.458 0.510876 149.32 0.75002L147.07 4.64714C146.931 4.88628 147.013 5.19208 147.253 5.33015C147.492 5.46822 147.798 5.38628 147.936 5.14714L149.936 1.68303L153.4 3.68303C153.639 3.8211 153.945 3.73917 154.083 3.50002C154.221 3.26088 154.139 2.95508 153.9 2.81701L150.003 0.567011ZM149.27 1.12943C152.228 12.1685 146.792 24.4481 135.373 35.4031C123.969 46.3438 106.681 55.869 86.2083 61.3547L86.4671 62.3207C107.071 56.7999 124.518 47.2029 136.065 36.1247C147.598 25.0607 153.331 12.4247 150.236 0.870612L149.27 1.12943ZM86.2083 61.3547C65.7354 66.8405 46.0012 67.2351 30.6546 63.4623C15.288 59.6845 4.44088 51.7678 1.48296 40.7287L0.517037 40.9876C3.61296 52.5417 14.8963 60.618 30.4158 64.4334C45.9553 68.2536 65.8632 67.8415 86.4671 62.3207L86.2083 61.3547Z" fill="black"/>
</svg>
