<svg width="30" height="55" viewBox="0 0 30 55" fill="none" xmlns="http://www.w3.org/2000/svg">
<path d="M14.0255 51.4133C13.8874 51.6525 13.9693 51.9583 14.2085 52.0963L18.1056 54.3463C18.3448 54.4844 18.6506 54.4025 18.7886 54.1633C18.9267 53.9242 18.8448 53.6184 18.6056 53.4803L15.1415 51.4803L17.1415 48.0162C17.2796 47.7771 17.1976 47.4713 16.9585 47.3332C16.7193 47.1951 16.4136 47.2771 16.2755 47.5162L14.0255 51.4133ZM1.12932 1.91815C11.9741 -0.987711 23.8585 7.53864 27.5307 21.2435L28.4966 20.9847C24.7358 6.94925 12.4312 -2.14547 0.870496 0.952225L1.12932 1.91815ZM27.5307 21.2435C31.2029 34.9483 25.1739 48.2745 14.3291 51.1804L14.5879 52.1463C26.1487 49.0486 32.2574 35.0201 28.4966 20.9847L27.5307 21.2435Z" fill="black"/>
</svg>
