<svg width="244" height="79" viewBox="0 0 244 79" fill="none" xmlns="http://www.w3.org/2000/svg">
<path d="M240.097 0.604924C239.879 0.435624 239.565 0.475234 239.395 0.69339L236.636 4.24847C236.467 4.46663 236.507 4.78073 236.725 4.95003C236.943 5.11932 237.257 5.07972 237.426 4.86156L239.879 1.70148L243.039 4.15381C243.257 4.32311 243.571 4.2835 243.74 4.06535C243.91 3.84719 243.87 3.5331 243.652 3.3638L240.097 0.604924ZM239.294 1.06249C241.366 17.4892 230.109 34.1485 209.934 47.7905C189.784 61.4149 160.866 71.9317 127.954 76.0819L128.079 77.0741C161.113 72.9084 190.189 62.3484 210.494 48.6189C230.773 34.907 242.43 17.9353 240.286 0.937376L239.294 1.06249ZM127.954 76.0819C95.0425 80.2322 64.4184 77.224 41.5175 69.0284C18.587 60.8221 3.54703 47.4789 1.47556 31.0522L0.483421 31.1773C2.62691 48.1752 18.1326 61.7216 41.1806 69.9699C64.2581 78.2287 95.0451 81.2398 128.079 77.0741L127.954 76.0819Z" fill="black"/>
</svg>
