<svg width="159" height="63" viewBox="0 0 159 63" fill="none" xmlns="http://www.w3.org/2000/svg">
<path d="M154.646 62.3536C154.842 62.5488 155.158 62.5488 155.354 62.3536L158.536 59.1716C158.731 58.9763 158.731 58.6597 158.536 58.4645C158.34 58.2692 158.024 58.2692 157.828 58.4645L155 61.2929L152.172 58.4645C151.976 58.2692 151.66 58.2692 151.464 58.4645C151.269 58.6597 151.269 58.9763 151.464 59.1716L154.646 62.3536ZM1.5 62C1.5 28.6891 35.6354 1.5 78 1.50001L78 0.500009C35.3128 0.500005 0.500003 27.9322 0.5 62L1.5 62ZM78 1.50001C120.365 1.50001 154.5 28.6891 154.5 62L155.5 62C155.5 27.9322 120.687 0.500012 78 0.500009L78 1.50001Z" fill="black"/>
</svg>
