<svg width="138" height="79" viewBox="0 0 138 79" fill="none" xmlns="http://www.w3.org/2000/svg">
<path d="M134.291 43.3544C134.53 43.4925 134.835 43.4105 134.974 43.1714L137.224 39.2743C137.362 39.0351 137.28 38.7293 137.041 38.5913C136.801 38.4532 136.496 38.5351 136.358 38.7743L134.358 42.2384L130.893 40.2384C130.654 40.1003 130.348 40.1822 130.21 40.4214C130.072 40.6605 130.154 40.9663 130.393 41.1044L134.291 43.3544ZM3.56076 78.0173C-4.69821 47.1944 17.715 14.2786 53.8227 4.60363L53.5638 3.63771C17.0666 13.4171 -5.84279 46.7865 2.59483 78.2761L3.56076 78.0173ZM53.8227 4.60363C89.9303 -5.07137 125.799 12.2279 134.058 43.0508L135.023 42.792C126.586 11.3024 90.0611 -6.1417 53.5638 3.63771L53.8227 4.60363Z" fill="black"/>
</svg>
