<svg width="29" height="56" viewBox="0 0 29 56" fill="none" xmlns="http://www.w3.org/2000/svg">
<path d="M12.7672 52.2138C12.6232 52.4494 12.6975 52.7572 12.9331 52.9012L16.7725 55.2483C17.0081 55.3923 17.3158 55.3181 17.4599 55.0825C17.6039 54.8469 17.5297 54.5391 17.2941 54.3951L13.8812 52.3088L15.9675 48.896C16.1116 48.6604 16.0373 48.3526 15.8017 48.2086C15.5661 48.0646 15.2584 48.1388 15.1143 48.3744L12.7672 52.2138ZM1.11729 2.41058C12.0316 -0.2222 23.6982 8.59972 27.0253 22.3924L27.9975 22.1579C24.5901 8.03253 12.5176 -1.36812 0.882794 1.43846L1.11729 2.41058ZM27.0253 22.3924C30.3524 36.1851 23.9909 49.3558 13.0766 51.9886L13.3111 52.9607C24.9459 50.1541 31.4048 36.2833 27.9975 22.1579L27.0253 22.3924Z" fill="black"/>
</svg>
