<svg width="37" height="51" viewBox="0 0 37 51" fill="none" xmlns="http://www.w3.org/2000/svg">
<path d="M10.3159 49.0163C10.5827 48.9448 10.741 48.6707 10.6695 48.4039L9.5048 44.0573C9.43333 43.7905 9.15917 43.6322 8.89243 43.7037C8.6257 43.7752 8.46741 44.0493 8.53888 44.3161L9.57416 48.1798L5.71045 49.215C5.44372 49.2865 5.28543 49.5607 5.3569 49.8274C5.42837 50.0942 5.70254 50.2524 5.96927 50.181L10.3159 49.0163ZM10.4365 48.1003C0.713322 42.4866 -1.66114 28.0541 5.43301 15.7667L4.56698 15.2667C-2.69828 27.8505 -0.428555 42.9821 9.93653 48.9663L10.4365 48.1003ZM5.43301 15.7667C12.5272 3.47925 26.2133 -1.68068 35.9365 3.93301L36.4365 3.06699C26.0714 -2.91729 11.8322 2.68286 4.56698 15.2667L5.43301 15.7667Z" fill="black"/>
</svg>
