<svg width="154" height="84" viewBox="0 0 154 84" fill="none" xmlns="http://www.w3.org/2000/svg">
<path d="M149.732 0.677118C149.493 0.539044 149.187 0.620984 149.049 0.860127L146.799 4.75724C146.661 4.99639 146.743 5.30218 146.982 5.44026C147.221 5.57833 147.527 5.49639 147.665 5.25724L149.665 1.79314L153.129 3.79314C153.368 3.93121 153.674 3.84928 153.812 3.61013C153.95 3.37098 153.868 3.06519 153.629 2.92712L149.732 0.677118ZM148.999 1.23954C157.621 33.4154 131.685 68.5129 90.7643 79.4777L91.0231 80.4436C132.256 69.3954 158.782 33.8877 149.965 0.980719L148.999 1.23954ZM90.7643 79.4777C49.8432 90.4425 9.83395 73.0147 1.21246 40.8389L0.246529 41.0977C9.06393 74.0047 49.7905 91.4919 91.0231 80.4436L90.7643 79.4777Z" fill="black"/>
</svg>
