<svg width="44" height="44" viewBox="0 0 44 44" fill="none" xmlns="http://www.w3.org/2000/svg">
<path d="M37.2695 42.6189C37.2695 42.895 37.4934 43.1189 37.7695 43.1189L42.2695 43.1189C42.5457 43.1189 42.7695 42.895 42.7695 42.6189C42.7695 42.3428 42.5457 42.1189 42.2695 42.1189L38.2695 42.1189L38.2695 38.1189C38.2695 37.8428 38.0457 37.6189 37.7695 37.6189C37.4934 37.6189 37.2695 37.8428 37.2695 38.1189L37.2695 42.6189ZM1.35353 6.2029C9.29249 -1.73607 23.8478 -0.2942 33.8804 9.73844L34.5875 9.03133C24.3129 -1.2433 9.10948 -2.96726 0.646423 5.49579L1.35353 6.2029ZM33.8804 9.73844C43.9131 19.7711 45.3549 34.3264 37.416 42.2653L38.1231 42.9724C46.5861 34.5094 44.8622 19.306 34.5875 9.03133L33.8804 9.73844Z" fill="black"/>
</svg>
