<svg width="95" height="51" viewBox="0 0 95 51" fill="none" xmlns="http://www.w3.org/2000/svg">
<path d="M91.7783 26.8947C92.0175 27.0328 92.3233 26.9508 92.4613 26.7117L94.7113 22.8146C94.8494 22.5754 94.7675 22.2696 94.5283 22.1315C94.2892 21.9935 93.9834 22.0754 93.8453 22.3146L91.8453 25.7787L88.3812 23.7787C88.1421 23.6406 87.8363 23.7225 87.6982 23.9617C87.5601 24.2008 87.6421 24.5066 87.8812 24.6447L91.7783 26.8947ZM2.98508 50.3207C-2.16474 31.1014 13.3265 10.0597 37.8927 3.47721L37.6339 2.51128C12.7561 9.17726 -3.32657 30.6291 2.01915 50.5796L2.98508 50.3207ZM37.8927 3.47721C62.4589 -3.10529 86.3955 7.3717 91.5454 26.5911L92.5113 26.3323C87.1656 6.38177 62.5117 -4.1547 37.6339 2.51128L37.8927 3.47721Z" fill="black"/>
</svg>
