<svg width="44" height="44" viewBox="0 0 44 44" fill="none" xmlns="http://www.w3.org/2000/svg">
<path d="M37.2695 42.6191C37.2695 42.8953 37.4934 43.1191 37.7695 43.1191L42.2695 43.1191C42.5457 43.1191 42.7695 42.8953 42.7695 42.6191C42.7695 42.343 42.5457 42.1191 42.2695 42.1191L38.2695 42.1191L38.2695 38.1191C38.2695 37.843 38.0457 37.6191 37.7695 37.6191C37.4934 37.6191 37.2695 37.843 37.2695 38.1191L37.2695 42.6191ZM1.35353 6.20314C9.29249 -1.73582 23.8478 -0.293956 33.8804 9.73868L34.5875 9.03157C24.3129 -1.24306 9.10948 -2.96702 0.646423 5.49604L1.35353 6.20314ZM33.8804 9.73868C43.9131 19.7713 45.3549 34.3266 37.416 42.2656L38.1231 42.9727C46.5861 34.5096 44.8622 19.3062 34.5875 9.03157L33.8804 9.73868Z" fill="black"/>
</svg>
